<svg xmlns="http://www.w3.org/2000/svg" viewBox="0 0 1000 1000">
  <path d="M778 211l-12 17 1 22-15 11-10 17 7 16-8 9-15-1-10 11 4 15-7 7-15 2-10 13 3 13-8 9-14 1-8 8 1 11-7 8-12-1-7 9 2 11-6 7-11 1-6 7 1 9-5 6-9 1-5 6v8l-4 5-7 1-4 5v7l-3 4-6 1-3 4v6l-3 3-5 1-2 3v5l-2 3h-4l-2 3v4l-2 2h-3l-1 3v3l-2 2h-3v3l-2 2h-2l-1 2v3l-1 2h-2l-1 2v2l-1 2h-2v2l-1 1h-2v2l-1 1h-1l-1 2v1l-1 1h-1v2h-1v1h-1v1h-1v1h-1v1h-1l-13 1-6-4-3-7 1-7 4-5 1-3-2-2-4 1-3-1-1-3 1-3 3-2 1-2-1-2-3-1-2-2v-3l2-2 3-1 2-2v-3l-2-2-3-1-2-2v-3l2-3 4-1 2-2v-4l-3-3-4-1-3-3v-4l3-4 5-2 3-3v-5l-4-4-5-2-4-4-1-6 4-5 6-3 4-5v-7l-5-5-7-3-5-5-2-8 5-7 8-4 5-6 1-8-6-7-8-4-6-7-2-9 6-8 9-5 7-8 2-10-7-9-10-5-7-8-3-11 7-10 11-6 8-10 3-12-8-11-12-7-9-11-3-14 9-12 13-8 10-12 4-15-10-13-14-9-11-13-4-17 11-14 16-10 12-15 5-18-12-16-17-11-13-16-5-20 13-17 19-12 15-18 6-22-14-19-20-13-16-20-6-24 16-21 22-15 18-22 7-26-17-23-24-16-20-24-8-29 19-25 26-18 22-26 9-31-21-28-29-20-24-29-10-34 23-30 32-22 27-32 11-37-25-33-35-24-30-35-12-41 28-36 38-26 32-38 14-44-30-39-42-28-36-42-15-48 32-42 45-31 39-45 17-52-35-46-49-33-42-49-18-56 38-50 53-36 45-53 20-60-41-54-57-38-49-57-21-65 44-58 62-41 53-62 23-70-47-63-67-44-57-67-25-75 51-68 72-48 62-72 27-81-55-73-78-52-67-78-29-87 59-79 84-56 72-84 31-94-64-85-90-60-78-91-34-101 68-92 97-65 84-98 36-109-73-99-105-70-91-106-39-118 79-107 113-75 98-114 42-127-85-116-122-81-106-123-45-137 91-125 132-87 115-133 49-149-98-135-142-94-124-143-53-161 106-146 153-102 134-154 57-175-114-158-164-110-145-167-62-190 123-171 178-119 157-181 67-206-133-186-191-129-168-195-72-225 143-203 207-139 183-211 78-247" />
</svg>

